<?xml version="1.0" encoding="UTF-8"?>
<svg width="153px" height="32px" viewBox="0 0 153 32" version="1.1" xmlns="http://www.w3.org/2000/svg" xmlns:xlink="http://www.w3.org/1999/xlink">
    <!-- Generator: sketchtool 61 (101010) - https://sketch.com -->
    <title>965E19A4-3DBB-4D85-8117-2E6657D9B145</title>
    <desc>Created with sketchtool.</desc>
    <defs>
        <path d="M4.84322375,0.0292056338 C7.51812653,0.0292056338 9.68644751,2.19761431 9.68644751,4.87251709 L9.68644751,20.7859916 L8.7704606,20.7859916 C3.92662292,20.7859916 0,16.8593687 0,12.015531 L0,4.87251709 C0,2.19761431 2.16840868,0.0292056338 4.84322375,0.0292056338 Z" id="path-1"></path>
        <path d="M0.964750666,0 C5.80850065,0 9.73521127,3.92671062 9.73521127,8.7704606 L9.73521127,15.9134745 C9.73521127,18.5883773 7.56680259,20.756786 4.89198751,20.756786 C2.21708474,20.756786 0.0486760563,18.5883773 0.0486760563,15.9134745 L0.0486760563,0 L0.964750666,0 Z" id="path-3"></path>
        <path d="M15.9134745,0 C18.5883773,0 20.756786,2.16840868 20.756786,4.84322375 C20.756786,7.51812653 18.5883773,9.68644751 15.9134745,9.68644751 L0,9.68644751 L0,8.7704606 C0,3.92671062 3.92662292,0 8.7704606,0 L15.9134745,0 Z" id="path-5"></path>
        <path d="M20.7859916,0.0487637609 L20.7859916,0.964750666 C20.7859916,5.80858835 16.859281,9.73521127 12.015531,9.73521127 L4.87251709,9.73521127 C2.19761431,9.73521127 0.0292056338,7.56680259 0.0292056338,4.89198751 C0.0292056338,2.21708474 2.19761431,0.0487637609 4.87251709,0.0487637609 L20.7859916,0.0487637609 Z" id="path-7"></path>
        <path d="M65.5481946,0.0069638009 L65.5481946,16.7239548 C65.5481946,18.0999502 65.372552,18.8613258 66.8656425,18.7733756 L66.8947873,21.4376742 C64.8453665,21.9060543 62.3275656,21.8766516 62.2398733,19.4173982 L62.2398733,19.0369683 C61.4493529,20.7936516 59.8391674,21.7304118 57.9947919,21.7595566 C53.7203077,21.8475068 51.4660995,18.3049955 51.4660995,14.3526516 C51.4660995,8.79012217 56.5308462,5.39385068 61.4493529,7.82395928 L61.4493529,0.0069638009 L65.5481946,0.0069638009 Z M106.380828,6.94574661 C111.533525,6.94574661 113.729443,10.4003077 112.646186,15.2017195 L103.072507,15.2017195 C103.219005,17.3973801 104.858335,18.246448 106.820063,18.3929457 C107.405538,18.4220905 108.078964,18.4514932 108.693842,18.363543 C109.952484,18.2173032 111.211385,17.8951629 112.060452,17.5144751 L112.52909,20.5006561 C110.8601,21.2911765 108.928032,21.7595566 107.054253,21.7595566 C102.311389,21.8475068 98.9739231,18.9490181 98.9739231,14.177009 C99.0616154,9.25850226 102.633529,6.94574661 106.380828,6.94574661 Z M83.8335882,14.2941041 C83.8335882,19.2417557 80.1154344,21.701009 76.3972805,21.701009 C72.649724,21.701009 68.8730226,19.2417557 68.8730226,14.2941041 C68.8730226,9.405 72.5620317,6.91634389 76.2801855,6.8871991 C80.0568869,6.85779638 83.8335882,9.31704977 83.8335882,14.2941041 Z M23.7367602,6.94574661 C27.3669638,6.94574661 30.4704977,8.14609955 30.4704977,12.2155385 L30.4704977,17.3096878 C30.4704977,18.5100407 30.441095,19.2126109 31.7879457,19.1246606 L31.8170905,21.4082715 C29.6799774,21.8766516 27.337819,21.7595566 27.337819,19.2417557 C26.4887511,20.9984389 24.2636878,21.6718643 22.448457,21.6718643 C19.8135611,21.6718643 17.4128552,19.9737285 17.3251629,17.2511403 C17.1786652,13.7963213 19.6673213,12.156991 22.8,12.156991 C24.0589005,12.156991 25.4934434,12.391181 26.5472986,13.0643484 L26.5472986,12.0984434 C26.5472986,10.370905 24.4393303,10.0781674 23.03419,10.0781674 C21.5410995,10.0781674 20.1651041,10.25381 18.9647511,10.9272353 L18.4375656,7.99960181 C19.9306561,7.29703167 21.8338371,6.94574661 23.7367602,6.94574661 Z M43.193362,6.9748914 C47.1748507,6.9748914 48.7558914,9.72688235 48.7558914,13.2402489 L48.7558914,21.4082715 L44.627905,21.4082715 L44.627905,13.2402489 C44.7155973,11.3079231 43.427552,10.2246652 41.9636063,10.2246652 C40.4119683,10.2246652 38.9774253,11.3370679 38.9774253,13.3279412 L38.9774253,21.4082715 L34.8785837,21.4082715 L34.8785837,11.6592081 C34.8785837,10.25381 34.8785837,9.81483258 33.531991,9.81483258 L33.531991,7.26762896 C35.4055113,6.94574661 38.6846878,6.62360633 38.6846878,9.17055204 C39.4752081,7.53122172 41.5537738,6.9748914 43.193362,6.9748914 Z M98.0786878,7.76541176 L97.1713303,11.1908281 C96.3222624,10.6344977 95.4437919,10.4003077 94.5364344,10.4294525 C92.7503484,10.4294525 91.2281131,11.6006606 91.2281131,13.7671765 L91.2281131,21.4082715 L87.2172217,21.4082715 L87.2172217,11.4541629 C87.2172217,10.2832127 87.1001267,9.52209502 85.8118235,9.72688235 L85.8118235,7.20908145 C87.8612443,6.74070136 90.8768281,6.74070136 91.1110181,9.25850226 C91.6964932,7.64831674 93.3360814,6.85779638 95.063362,6.85779638 C96.1466199,6.82865158 97.2590226,7.15053394 98.0786878,7.76541176 Z M8.78883258,0.885434389 C13.5610995,0.885434389 16.0789005,4.48649321 16.0789005,8.35088688 C16.0789005,12.156991 13.4731493,15.5821493 8.78883258,15.5821493 L4.42665611,15.5821493 L4.42665611,21.3791267 L0.0350769231,21.3791267 L0.0350769231,0.885434389 C2.96271041,0.856031674 5.8611991,0.885434389 8.78883258,0.885434389 Z M23.5317149,14.7918869 C22.2436697,14.8795792 21.1895566,15.611552 21.3360543,16.9875475 C21.4240045,18.0122579 22.331362,18.5100407 23.2683801,18.5100407 C24.6149729,18.5100407 26.3131086,17.8366154 26.4596063,16.3435249 L26.4596063,15.611552 C25.6396833,15.0552217 24.5564253,14.7918869 23.5317149,14.7918869 Z M76.3972805,10.488 C74.67,10.488 72.9427195,11.7469005 72.9427195,14.2941041 C72.9427195,16.8066316 74.5666563,18.0943041 76.2405174,18.1286472 L76.3093303,18.1293529 C78.0368688,18.1587557 79.7641493,16.8704525 79.7641493,14.2941041 C79.7641493,11.7763032 78.1245611,10.488 76.3972805,10.488 Z M55.5355385,14.3526516 C55.5355385,16.3726697 56.4431538,18.1293529 58.6388145,18.1293529 C60.4246425,18.1293529 61.566448,16.6362624 61.566448,14.9089819 L61.566448,11.2785204 C58.6388145,9.58064253 55.5355385,10.8101403 55.5355385,14.3526516 Z M106.380828,10.0781674 C104.82919,10.0781674 103.423792,10.9272353 103.10191,12.5668235 L109.308462,12.5668235 C109.396412,10.722448 107.903321,10.0781674 106.380828,10.0781674 Z M4.33870588,4.72068326 L4.33870588,11.8348507 L8.78883258,11.8348507 C10.6626109,11.8348507 11.8921086,10.1952624 11.8921086,8.23379186 C11.8921086,6.33086878 10.7211584,4.72068326 8.78883258,4.72068326 C7.29574208,4.69128054 5.8320543,4.72068326 4.33870588,4.72068326 Z" id="path-9"></path>
    </defs>
    <g id="Site" stroke="none" stroke-width="1" fill="none" fill-rule="evenodd">
        <g id="Nos-offres_6projets" transform="translate(-181.000000, -34.000000)">
            <g id="header-Offres">
                <g id="Header-White">
                    <g id="Header">
                        <g id="Logo-Pandore" transform="translate(181.000000, 34.000000)">
                            <g id="Group-3" transform="translate(0.000000, 10.349144)">
                                <mask id="mask-2" fill="white">
                                    <use xlink:href="#path-1"></use>
                                </mask>
                                <g id="Clip-2"></g>
                                <polygon id="Fill-1" fill="#BEA6D2" mask="url(#mask-2)" points="-0.00701636848 20.7877457 9.69662124 20.7877457 9.69662124 0.0228031976 -0.00701636848 0.0228031976"></polygon>
                            </g>
                            <g id="Group-6" transform="translate(21.399924, 0.000000)">
                                <mask id="mask-4" fill="white">
                                    <use xlink:href="#path-3"></use>
                                </mask>
                                <g id="Clip-5"></g>
                                <polygon id="Fill-4" fill="#7D4FA3" mask="url(#mask-4)" points="0.0420982109 20.7596802 9.73521127 20.7596802 9.73521127 -0.00526227636 0.0420982109 -0.00526227636"></polygon>
                            </g>
                            <g id="Group-9">
                                <mask id="mask-6" fill="white">
                                    <use xlink:href="#path-5"></use>
                                </mask>
                                <g id="Clip-8"></g>
                                <polygon id="Fill-7" fill="#A383BE" mask="url(#mask-6)" points="-0.00701636848 9.68785078 20.7579262 9.68785078 20.7579262 -0.00526227636 -0.00701636848 -0.00526227636"></polygon>
                            </g>
                            <g id="Group-12" transform="translate(10.349144, 21.399924)">
                                <mask id="mask-8" fill="white">
                                    <use xlink:href="#path-7"></use>
                                </mask>
                                <g id="Clip-11"></g>
                                <polygon id="Fill-10" fill="#5E3180" mask="url(#mask-8)" points="0.0210491054 9.73696536 20.7859916 9.73696536 20.7859916 0.043852303 0.0210491054 0.043852303"></polygon>
                            </g>
                            <g id="Group-15" transform="translate(40.000000, 4.000000)">
                                <mask id="mask-10" fill="white">
                                    <use xlink:href="#path-9"></use>
                                </mask>
                                <g id="Clip-2"></g>
                                <polygon id="Fill-1" fill="#1F2933" mask="url(#mask-10)" points="0.0309502262 21.7838009 112.937376 21.7838009 112.937376 -0.00515837104 0.0309502262 -0.00515837104"></polygon>
                            </g>
                        </g>
                    </g>
                </g>
            </g>
        </g>
    </g>
</svg>